<mxfile host="Electron" modified="2024-03-27T08:40:32.860Z" agent="Mozilla/5.0 (Windows NT 10.0; Win64; x64) AppleWebKit/537.36 (KHTML, like Gecko) draw.io/24.1.0 Chrome/120.0.6099.109 Electron/28.1.0 Safari/537.36" etag="9vJjDoiDy-sNhU2L6U2a" version="24.1.0" type="device">
  <diagram name="Page-1" id="2YBvvXClWsGukQMizWep">
    <mxGraphModel dx="1020" dy="496" grid="1" gridSize="10" guides="1" tooltips="1" connect="1" arrows="1" fold="1" page="1" pageScale="1" pageWidth="850" pageHeight="1100" math="0" shadow="0">
      <root>
        <mxCell id="0" />
        <mxCell id="1" parent="0" />
        <mxCell id="oAWuPxoftf_v8FX2UcuW-1" value="User" style="rounded=0;whiteSpace=wrap;html=1;" parent="1" vertex="1">
          <mxGeometry x="100" y="70" width="120" height="60" as="geometry" />
        </mxCell>
        <mxCell id="oAWuPxoftf_v8FX2UcuW-2" value="NFTForge" style="rounded=0;whiteSpace=wrap;html=1;" parent="1" vertex="1">
          <mxGeometry x="350" y="70" width="120" height="60" as="geometry" />
        </mxCell>
        <mxCell id="oAWuPxoftf_v8FX2UcuW-3" value="Process Complete" style="rounded=0;whiteSpace=wrap;html=1;" parent="1" vertex="1">
          <mxGeometry x="850" y="70" width="120" height="60" as="geometry" />
        </mxCell>
        <mxCell id="oAWuPxoftf_v8FX2UcuW-5" value="" style="shape=link;html=1;rounded=0;exitX=0.5;exitY=1;exitDx=0;exitDy=0;" parent="1" source="oAWuPxoftf_v8FX2UcuW-1" edge="1">
          <mxGeometry width="100" relative="1" as="geometry">
            <mxPoint x="370" y="290" as="sourcePoint" />
            <mxPoint x="160" y="620" as="targetPoint" />
          </mxGeometry>
        </mxCell>
        <mxCell id="oAWuPxoftf_v8FX2UcuW-6" value="" style="shape=link;html=1;rounded=0;exitX=0.5;exitY=1;exitDx=0;exitDy=0;" parent="1" edge="1">
          <mxGeometry width="100" relative="1" as="geometry">
            <mxPoint x="910" y="130" as="sourcePoint" />
            <mxPoint x="910" y="620" as="targetPoint" />
          </mxGeometry>
        </mxCell>
        <mxCell id="oAWuPxoftf_v8FX2UcuW-7" value="" style="shape=link;html=1;rounded=0;exitX=0.5;exitY=1;exitDx=0;exitDy=0;" parent="1" edge="1">
          <mxGeometry width="100" relative="1" as="geometry">
            <mxPoint x="409.5" y="130" as="sourcePoint" />
            <mxPoint x="410" y="620" as="targetPoint" />
          </mxGeometry>
        </mxCell>
        <mxCell id="oAWuPxoftf_v8FX2UcuW-8" value="" style="endArrow=classic;html=1;rounded=0;" parent="1" edge="1">
          <mxGeometry width="50" height="50" relative="1" as="geometry">
            <mxPoint x="160" y="170" as="sourcePoint" />
            <mxPoint x="410" y="170" as="targetPoint" />
          </mxGeometry>
        </mxCell>
        <mxCell id="oAWuPxoftf_v8FX2UcuW-9" value="" style="endArrow=classic;html=1;rounded=0;" parent="1" edge="1">
          <mxGeometry width="50" height="50" relative="1" as="geometry">
            <mxPoint x="160" y="340" as="sourcePoint" />
            <mxPoint x="410" y="340" as="targetPoint" />
          </mxGeometry>
        </mxCell>
        <mxCell id="oAWuPxoftf_v8FX2UcuW-10" value="" style="endArrow=classic;html=1;rounded=0;" parent="1" edge="1">
          <mxGeometry width="50" height="50" relative="1" as="geometry">
            <mxPoint x="160" y="480" as="sourcePoint" />
            <mxPoint x="410" y="480" as="targetPoint" />
          </mxGeometry>
        </mxCell>
        <mxCell id="oAWuPxoftf_v8FX2UcuW-11" value="Buy" style="text;html=1;align=center;verticalAlign=middle;resizable=0;points=[];autosize=1;strokeColor=none;fillColor=none;" parent="1" vertex="1">
          <mxGeometry x="260" y="138" width="40" height="30" as="geometry" />
        </mxCell>
        <mxCell id="oAWuPxoftf_v8FX2UcuW-12" value="Mint" style="text;html=1;align=center;verticalAlign=middle;resizable=0;points=[];autosize=1;strokeColor=none;fillColor=none;" parent="1" vertex="1">
          <mxGeometry x="255" y="308" width="50" height="30" as="geometry" />
        </mxCell>
        <mxCell id="oAWuPxoftf_v8FX2UcuW-13" value="Sell" style="text;html=1;align=center;verticalAlign=middle;resizable=0;points=[];autosize=1;strokeColor=none;fillColor=none;" parent="1" vertex="1">
          <mxGeometry x="255" y="440" width="40" height="30" as="geometry" />
        </mxCell>
        <mxCell id="oAWuPxoftf_v8FX2UcuW-14" value="" style="endArrow=classic;html=1;rounded=0;" parent="1" edge="1">
          <mxGeometry width="50" height="50" relative="1" as="geometry">
            <mxPoint x="660" y="210" as="sourcePoint" />
            <mxPoint x="910" y="210" as="targetPoint" />
          </mxGeometry>
        </mxCell>
        <mxCell id="oAWuPxoftf_v8FX2UcuW-15" value="Purchased, Remove from map of List" style="text;html=1;align=center;verticalAlign=middle;resizable=0;points=[];autosize=1;strokeColor=none;fillColor=none;" parent="1" vertex="1">
          <mxGeometry x="670" y="180" width="220" height="30" as="geometry" />
        </mxCell>
        <mxCell id="oAWuPxoftf_v8FX2UcuW-17" value="" style="endArrow=none;html=1;rounded=0;dashed=1;dashPattern=8 8;strokeColor=default;startArrow=classic;startFill=0;endFill=0;" parent="1" edge="1">
          <mxGeometry width="50" height="50" relative="1" as="geometry">
            <mxPoint x="406" y="250" as="sourcePoint" />
            <mxPoint x="656" y="250" as="targetPoint" />
          </mxGeometry>
        </mxCell>
        <mxCell id="oAWuPxoftf_v8FX2UcuW-19" value="" style="endArrow=none;html=1;rounded=0;dashed=1;dashPattern=8 8;strokeColor=default;startArrow=classic;startFill=0;endFill=0;" parent="1" edge="1">
          <mxGeometry width="50" height="50" relative="1" as="geometry">
            <mxPoint x="406" y="290" as="sourcePoint" />
            <mxPoint x="656" y="290" as="targetPoint" />
          </mxGeometry>
        </mxCell>
        <mxCell id="oAWuPxoftf_v8FX2UcuW-20" value="Insufficient Naavy Tokens" style="text;html=1;align=center;verticalAlign=middle;resizable=0;points=[];autosize=1;strokeColor=none;fillColor=none;" parent="1" vertex="1">
          <mxGeometry x="451" y="220" width="160" height="30" as="geometry" />
        </mxCell>
        <mxCell id="oAWuPxoftf_v8FX2UcuW-21" value="Not Listed or Not Availabe" style="text;html=1;align=center;verticalAlign=middle;resizable=0;points=[];autosize=1;strokeColor=none;fillColor=none;" parent="1" vertex="1">
          <mxGeometry x="451" y="260" width="160" height="30" as="geometry" />
        </mxCell>
        <mxCell id="oAWuPxoftf_v8FX2UcuW-22" value="" style="endArrow=classic;html=1;rounded=0;" parent="1" edge="1">
          <mxGeometry width="50" height="50" relative="1" as="geometry">
            <mxPoint x="655" y="468.95" as="sourcePoint" />
            <mxPoint x="905" y="468.95" as="targetPoint" />
          </mxGeometry>
        </mxCell>
        <mxCell id="oAWuPxoftf_v8FX2UcuW-23" value="Add into map of Listing,&lt;br&gt;Add into map of NFTs,&lt;br&gt;Add into Map of Owners" style="text;html=1;align=center;verticalAlign=middle;resizable=0;points=[];autosize=1;strokeColor=none;fillColor=none;" parent="1" vertex="1">
          <mxGeometry x="700" y="400" width="150" height="60" as="geometry" />
        </mxCell>
        <mxCell id="oAWuPxoftf_v8FX2UcuW-25" value="" style="endArrow=classic;html=1;rounded=0;" parent="1" edge="1">
          <mxGeometry width="50" height="50" relative="1" as="geometry">
            <mxPoint x="410" y="560" as="sourcePoint" />
            <mxPoint x="910" y="560" as="targetPoint" />
          </mxGeometry>
        </mxCell>
        <mxCell id="oAWuPxoftf_v8FX2UcuW-26" value="Add into map of Listing,&lt;br&gt;Remove from map of Owners,&lt;br&gt;Now new Owner is NFTForge" style="text;html=1;align=center;verticalAlign=middle;resizable=0;points=[];autosize=1;strokeColor=none;fillColor=none;" parent="1" vertex="1">
          <mxGeometry x="680" y="500" width="190" height="60" as="geometry" />
        </mxCell>
        <mxCell id="oAWuPxoftf_v8FX2UcuW-27" value="Token" style="rounded=0;whiteSpace=wrap;html=1;" parent="1" vertex="1">
          <mxGeometry x="600" y="70" width="120" height="60" as="geometry" />
        </mxCell>
        <mxCell id="oAWuPxoftf_v8FX2UcuW-28" value="" style="shape=link;html=1;rounded=0;exitX=0.5;exitY=1;exitDx=0;exitDy=0;" parent="1" edge="1">
          <mxGeometry width="100" relative="1" as="geometry">
            <mxPoint x="660" y="130" as="sourcePoint" />
            <mxPoint x="660" y="480" as="targetPoint" />
          </mxGeometry>
        </mxCell>
        <mxCell id="oAWuPxoftf_v8FX2UcuW-29" value="" style="endArrow=classic;html=1;rounded=0;" parent="1" edge="1">
          <mxGeometry width="50" height="50" relative="1" as="geometry">
            <mxPoint x="410" y="380" as="sourcePoint" />
            <mxPoint x="660" y="380" as="targetPoint" />
          </mxGeometry>
        </mxCell>
        <mxCell id="oAWuPxoftf_v8FX2UcuW-30" value="Check Naavy Tokens" style="text;html=1;align=center;verticalAlign=middle;resizable=0;points=[];autosize=1;strokeColor=none;fillColor=none;" parent="1" vertex="1">
          <mxGeometry x="461" y="168" width="140" height="30" as="geometry" />
        </mxCell>
        <mxCell id="oAWuPxoftf_v8FX2UcuW-31" value="Set Naavy Tokens for NFT" style="text;html=1;align=center;verticalAlign=middle;resizable=0;points=[];autosize=1;strokeColor=none;fillColor=none;" parent="1" vertex="1">
          <mxGeometry x="451" y="350" width="160" height="30" as="geometry" />
        </mxCell>
        <mxCell id="oAWuPxoftf_v8FX2UcuW-32" value="" style="endArrow=classic;html=1;rounded=0;" parent="1" edge="1">
          <mxGeometry width="50" height="50" relative="1" as="geometry">
            <mxPoint x="406" y="198" as="sourcePoint" />
            <mxPoint x="656" y="198" as="targetPoint" />
          </mxGeometry>
        </mxCell>
      </root>
    </mxGraphModel>
  </diagram>
</mxfile>
